<!-- Based on: Font Awesome Pro 6.3.0 by @fontawesome - https://fontawesome.com License - https://fontawesome.com/license (Commercial License) Copyright 2023 Fonticons, Inc. -->
<!-- Duplicate of wand.svg so we can have a separate symbol in the sprite to use for animation instead of sharing it with all usages of the wand icon. -->

<svg id="icon-wand-animated" aria-hidden="true" viewBox="0 0 576 512" xmlns="http://www.w3.org/2000/svg">
    <path id="wai-wand-stick"
        d="M46.1 395.4C27.4 414.1 27.4 444.5 46.1 463.3L80.7 497.9C99.4 516.6 129.8 516.6 148.6 497.9L529.9 116.5C548.6 97.8 548.6 67.4 529.9 48.6L495.3 14.1C476.6 -4.59999 446.2 -4.59999 427.4 14.1L46.1 395.4ZM484.6 82.6L379.6 187.6L356.3 164.3L461.3 59.3L484.6 82.6Z" />
    <path id="wai-wand-star1"
        d="M352 384C352 379.2 355 374.9 359.5 373.2L416 352L437.2 295.5C438.9 291 443.2 288 448 288C452.8 288 457.1 291 458.8 295.5L480 352L536.5 373.2C541 374.9 544 379.2 544 384C544 388.8 541 393.1 536.5 394.8L480 416L458.8 472.5C457.1 477 452.8 480 448 480C443.2 480 438.9 477 437.2 472.5L416 416L359.5 394.8C355 393.1 352 388.8 352 384Z" />
    <path id="wai-wand-star2"
        d="M197 56.8L234.7 42.7L248.8 5C249.9 2 252.8 0 256 0C259.2 0 262.1 2 263.2 5L277.3 42.7L315 56.8C318 57.9 320 60.8 320 64C320 67.2 318 70.1 315 71.2L277.3 85.3L263.2 123C262.1 126 259.2 128 256 128C252.8 128 249.9 126 248.8 123L234.7 85.3L197 71.2C194 70.1 192 67.2 192 64C192 60.8 194 57.9 197 56.8Z" />
    <path id="wai-wand-star3"
        d="M0 128C0 123.2 3 118.9 7.5 117.2L64 96L85.2 39.5C86.9 35 91.2 32 96 32C100.8 32 105.1 35 106.8 39.5L128 96L184.5 117.2C189 118.9 192 123.2 192 128C192 132.8 189 137.1 184.5 138.8L128 160L106.8 216.5C105.1 221 100.8 224 96 224C91.2 224 86.9 221 85.2 216.5L64 160L7.5 138.8C3 137.1 0 132.8 0 128Z" />
</svg>
